<svg width="1em" height="1em" viewBox="0 0 12 12" fill="none" xmlns="http://www.w3.org/2000/svg">
<path fill-rule="evenodd" clip-rule="evenodd" d="M6 12C9.31371 12 12 9.31371 12 6C12 2.68629 9.31371 0 6 0C2.68629 0 0 2.68629 0 6C0 9.31371 2.68629 12 6 12ZM9.91182 4.67031C10.235 4.34262 10.2313 3.81499 9.90361 3.49183C9.57592 3.16866 9.0483 3.17234 8.72513 3.50003L4.98642 7.29114L3.70066 6.05791C3.36851 5.73933 2.84099 5.75033 2.52241 6.08248C2.20383 6.41463 2.21482 6.94215 2.54697 7.26073L4.42584 9.06285C4.75474 9.37831 5.27603 9.37106 5.59603 9.04658L9.91182 4.67031Z" fill="currentColor"/>
</svg>
