<svg width="1em" height="1em" viewBox="0 0 14 14" fill="none" xmlns="http://www.w3.org/2000/svg">
<path fill-rule="evenodd" clip-rule="evenodd" d="M7 0.333336C6.63181 0.333336 6.33334 0.631813 6.33334 1V6.33334H1C0.631813 6.33334 0.333336 6.63181 0.333336 7C0.333336 7.36819 0.631813 7.66667 1 7.66667H6.33334V13C6.33334 13.3682 6.63181 13.6667 7 13.6667C7.36819 13.6667 7.66667 13.3682 7.66667 13V7.66667H13C13.3682 7.66667 13.6667 7.36819 13.6667 7C13.6667 6.63181 13.3682 6.33334 13 6.33334H7.66667V1C7.66667 0.631813 7.36819 0.333336 7 0.333336Z" fill="currentColor" fill-opacity="0.7"/>
</svg>
