<svg width="143" height="48" viewBox="0 0 143 48" fill="none" xmlns="http://www.w3.org/2000/svg">
<path d="M29.9286 30.5819C29.9286 30.8615 30.1553 31.0882 30.4349 31.0882H42.3544C42.634 31.0882 42.8607 30.8615 42.8607 30.5819V28.8402C42.8607 28.5606 42.634 28.3339 42.3544 28.3339H33.1993V24.9772H41.1924C41.4721 24.9772 41.6987 24.7505 41.6987 24.4709V22.9228C41.6987 22.6432 41.4721 22.4165 41.1924 22.4165H33.1993V19.4901H42.3544C42.634 19.4901 42.8607 19.2635 42.8607 18.9838V17.2422C42.8607 16.9626 42.634 16.7359 42.3544 16.7359H30.4349C30.1553 16.7359 29.9286 16.9626 29.9286 17.2422V30.5819Z" fill="#290D4D"/>
<path d="M51.2598 30.5819C51.2598 30.8615 51.4865 31.0882 51.7661 31.0882H53.9166C54.1963 31.0882 54.4229 30.8615 54.4229 30.5819V21.1255L59.0488 29.7617C59.4863 30.5784 60.3376 31.0882 61.2641 31.0882C62.1921 31.0882 63.0446 30.5767 63.4814 29.758L68.0867 21.1255V30.5819C68.0867 30.8615 68.3133 31.0882 68.593 31.0882H70.8726C71.1522 31.0882 71.3789 30.8615 71.3789 30.5819V17.2422C71.3789 16.9626 71.1522 16.7359 70.8726 16.7359H67.1451C66.9567 16.7359 66.7839 16.8405 66.6965 17.0074L61.3301 27.258L55.8783 17.0045C55.7904 16.8392 55.6185 16.7359 55.4313 16.7359H51.7661C51.4865 16.7359 51.2598 16.9626 51.2598 17.2422V30.5819Z" fill="#290D4D"/>
<path d="M81.4627 30.5819C81.4627 30.8615 81.6894 31.0882 81.969 31.0882H90.4786C92.2 31.0882 93.1898 30.873 94.0936 30.292C95.1694 29.5819 95.815 28.2909 95.815 26.8707C95.815 25.7948 95.4277 24.8696 94.7391 24.3316C94.3303 23.9873 93.9429 23.8152 93.0177 23.557C94.4809 22.8469 95.1479 21.8786 95.1479 20.4369C95.1479 19.275 94.6315 18.1776 93.8138 17.532C93.0822 16.9726 92.1139 16.7359 90.6507 16.7359H81.969C81.6894 16.7359 81.4627 16.9626 81.4627 17.2422V30.5819ZM84.7334 28.5276V25.0202H89.5533C90.5431 25.0202 91.0381 25.1063 91.4254 25.3214C91.8772 25.6012 92.157 26.1391 92.157 26.7631C92.157 27.4517 91.7912 28.0972 91.2532 28.3339C90.8874 28.4845 90.5431 28.5276 89.5318 28.5276H84.7334ZM84.7334 22.5672V19.2965H89.1445C90.0267 19.2965 90.4571 19.3826 90.8229 19.5977C91.2532 19.8559 91.533 20.3939 91.533 20.9533C91.533 22.0723 90.8014 22.5672 89.123 22.5672H84.7334Z" fill="#290D4D"/>
<path d="M105.426 30.5819C105.426 30.8615 105.652 31.0882 105.932 31.0882H117.851C118.131 31.0882 118.358 30.8615 118.358 30.5819V28.8402C118.358 28.5606 118.131 28.3339 117.851 28.3339H108.696V24.9772H116.689C116.969 24.9772 117.196 24.7505 117.196 24.4709V22.9228C117.196 22.6432 116.969 22.4165 116.689 22.4165H108.696V19.4901H117.851C118.131 19.4901 118.358 19.2635 118.358 18.9838V17.2422C118.358 16.9626 118.131 16.7359 117.851 16.7359H105.932C105.652 16.7359 105.426 16.9626 105.426 17.2422V30.5819Z" fill="#290D4D"/>
<path d="M125.852 30.3629C125.69 30.699 125.935 31.0882 126.308 31.0882H128.771C128.97 31.0882 129.15 30.9719 129.232 30.7909L130.56 27.8605H137.274L138.665 30.7985C138.748 30.9754 138.926 31.0882 139.122 31.0882H141.884C142.259 31.0882 142.504 30.6954 142.339 30.359L136.377 18.1973C135.938 17.3028 135.029 16.7359 134.032 16.7359C133.028 16.7359 132.113 17.3119 131.679 18.2173L125.852 30.3629ZM131.744 25.3214L133.896 20.5445L136.112 25.3214H131.744Z" fill="#290D4D"/>
<path fill-rule="evenodd" clip-rule="evenodd" d="M5.87947 6.27957C5.87947 3.06393 8.48625 0.457146 11.7019 0.457146H32.7133C35.9289 0.457146 38.5357 3.06393 38.5357 6.27957C38.5357 9.49521 35.9289 12.102 32.7133 12.102H11.7019C8.48625 12.102 5.87947 9.49521 5.87947 6.27957ZM5.87947 41.7204C5.87947 38.5048 8.48625 35.898 11.7019 35.898H32.7133C35.9289 35.898 38.5357 38.5048 38.5357 41.7204C38.5357 44.9361 35.9289 47.5428 32.7133 47.5428H11.7019C8.48625 47.5428 5.87947 44.9361 5.87947 41.7204ZM5.87957 18.1776C2.66393 18.1776 0.0571442 20.7844 0.0571442 24C0.0571442 27.2156 2.66394 29.8224 5.87958 29.8224H18.537C21.7527 29.8224 24.3594 27.2156 24.3594 24C24.3594 20.7844 21.7527 18.1776 18.537 18.1776H5.87957Z" fill="#290D4D"/>
</svg>
